<svg width="38" height="1021" viewBox="0 0 38 1021" fill="none" xmlns="http://www.w3.org/2000/svg">
<path d="M19 813V1013" stroke="black" stroke-width="3"/>
<g filter="url(#filter0_f_6_170)">
<path d="M19 1001L22.3677 1011.36H33.2658L24.4491 1017.77L27.8168 1028.14L19 1021.73L10.1832 1028.14L13.5509 1017.77L4.73415 1011.36H15.6323L19 1001Z" fill="#EDE647"/>
</g>
<g filter="url(#filter1_f_6_170)">
<path d="M19 1009L20.6839 1014.18H26.1329L21.7245 1017.39L23.4084 1022.57L19 1019.36L14.5916 1022.57L16.2755 1017.39L11.8671 1014.18H17.3161L19 1009Z" fill="#F8EF1E"/>
</g>
<g filter="url(#filter2_f_6_170)">
<path d="M19.05 1012.6L19.8919 1015.19H22.6164L20.4123 1016.79L21.2542 1019.38L19.05 1017.78L16.8458 1019.38L17.6877 1016.79L15.4835 1015.19H18.2081L19.05 1012.6Z" fill="#FFF500"/>
</g>
<path d="M19 610V810" stroke="black" stroke-width="3"/>
<g filter="url(#filter3_f_6_170)">
<path d="M19 798L22.3677 808.365H33.2658L24.4491 814.771L27.8168 825.135L19 818.729L10.1832 825.135L13.5509 814.771L4.73415 808.365H15.6323L19 798Z" fill="#EDE647"/>
</g>
<g filter="url(#filter4_f_6_170)">
<path d="M19 806L20.6839 811.182H26.1329L21.7245 814.385L23.4084 819.568L19 816.365L14.5916 819.568L16.2755 814.385L11.8671 811.182H17.3161L19 806Z" fill="#F8EF1E"/>
</g>
<g filter="url(#filter5_f_6_170)">
<path d="M19.05 809.6L19.8919 812.191H22.6164L20.4123 813.793L21.2542 816.384L19.05 814.782L16.8458 816.384L17.6877 813.793L15.4835 812.191H18.2081L19.05 809.6Z" fill="#FFF500"/>
</g>
<path d="M19 406V606" stroke="black" stroke-width="3"/>
<g filter="url(#filter6_f_6_170)">
<path d="M19 594L22.3677 604.365H33.2658L24.4491 610.771L27.8168 621.135L19 614.729L10.1832 621.135L13.5509 610.771L4.73415 604.365H15.6323L19 594Z" fill="#EDE647"/>
</g>
<g filter="url(#filter7_f_6_170)">
<path d="M19 602L20.6839 607.182H26.1329L21.7245 610.385L23.4084 615.568L19 612.365L14.5916 615.568L16.2755 610.385L11.8671 607.182H17.3161L19 602Z" fill="#F8EF1E"/>
</g>
<g filter="url(#filter8_f_6_170)">
<path d="M19.05 605.6L19.8919 608.191H22.6164L20.4123 609.793L21.2542 612.384L19.05 610.782L16.8458 612.384L17.6877 609.793L15.4835 608.191H18.2081L19.05 605.6Z" fill="#FFF500"/>
</g>
<path d="M19 203V403" stroke="black" stroke-width="3"/>
<g filter="url(#filter9_f_6_170)">
<path d="M19 391L22.3677 401.365H33.2658L24.4491 407.771L27.8168 418.135L19 411.729L10.1832 418.135L13.5509 407.771L4.73415 401.365H15.6323L19 391Z" fill="#EDE647"/>
</g>
<g filter="url(#filter10_f_6_170)">
<path d="M19 399L20.6839 404.182H26.1329L21.7245 407.385L23.4084 412.568L19 409.365L14.5916 412.568L16.2755 407.385L11.8671 404.182H17.3161L19 399Z" fill="#F8EF1E"/>
</g>
<g filter="url(#filter11_f_6_170)">
<path d="M19.05 402.6L19.8919 405.191H22.6164L20.4123 406.793L21.2542 409.384L19.05 407.782L16.8458 409.384L17.6877 406.793L15.4835 405.191H18.2081L19.05 402.6Z" fill="#FFF500"/>
</g>
<path d="M19 0V200" stroke="black" stroke-width="3"/>
<g filter="url(#filter12_f_6_170)">
<path d="M19 188L22.3677 198.365H33.2658L24.4491 204.771L27.8168 215.135L19 208.729L10.1832 215.135L13.5509 204.771L4.73415 198.365H15.6323L19 188Z" fill="#EDE647"/>
</g>
<g filter="url(#filter13_f_6_170)">
<path d="M19 196L20.6839 201.182H26.1329L21.7245 204.385L23.4084 209.568L19 206.365L14.5916 209.568L16.2755 204.385L11.8671 201.182H17.3161L19 196Z" fill="#F8EF1E"/>
</g>
<g filter="url(#filter14_f_6_170)">
<path d="M19.05 199.6L19.8919 202.191H22.6164L20.4123 203.793L21.2542 206.384L19.05 204.782L16.8458 206.384L17.6877 203.793L15.4835 202.191H18.2081L19.05 199.6Z" fill="#FFF500"/>
</g>
<defs>
<filter id="filter0_f_6_170" x="0.734152" y="997" width="36.5317" height="35.1353" filterUnits="userSpaceOnUse" color-interpolation-filters="sRGB">
<feFlood flood-opacity="0" result="BackgroundImageFix"/>
<feBlend mode="normal" in="SourceGraphic" in2="BackgroundImageFix" result="shape"/>
<feGaussianBlur stdDeviation="2" result="effect1_foregroundBlur_6_170"/>
</filter>
<filter id="filter1_f_6_170" x="9.86708" y="1007" width="18.2658" height="17.5676" filterUnits="userSpaceOnUse" color-interpolation-filters="sRGB">
<feFlood flood-opacity="0" result="BackgroundImageFix"/>
<feBlend mode="normal" in="SourceGraphic" in2="BackgroundImageFix" result="shape"/>
<feGaussianBlur stdDeviation="1" result="effect1_foregroundBlur_6_170"/>
</filter>
<filter id="filter2_f_6_170" x="15.2835" y="1012.4" width="7.53292" height="7.18381" filterUnits="userSpaceOnUse" color-interpolation-filters="sRGB">
<feFlood flood-opacity="0" result="BackgroundImageFix"/>
<feBlend mode="normal" in="SourceGraphic" in2="BackgroundImageFix" result="shape"/>
<feGaussianBlur stdDeviation="0.1" result="effect1_foregroundBlur_6_170"/>
</filter>
<filter id="filter3_f_6_170" x="0.734152" y="794" width="36.5317" height="35.1353" filterUnits="userSpaceOnUse" color-interpolation-filters="sRGB">
<feFlood flood-opacity="0" result="BackgroundImageFix"/>
<feBlend mode="normal" in="SourceGraphic" in2="BackgroundImageFix" result="shape"/>
<feGaussianBlur stdDeviation="2" result="effect1_foregroundBlur_6_170"/>
</filter>
<filter id="filter4_f_6_170" x="9.86708" y="804" width="18.2658" height="17.5676" filterUnits="userSpaceOnUse" color-interpolation-filters="sRGB">
<feFlood flood-opacity="0" result="BackgroundImageFix"/>
<feBlend mode="normal" in="SourceGraphic" in2="BackgroundImageFix" result="shape"/>
<feGaussianBlur stdDeviation="1" result="effect1_foregroundBlur_6_170"/>
</filter>
<filter id="filter5_f_6_170" x="15.2835" y="809.4" width="7.53292" height="7.18381" filterUnits="userSpaceOnUse" color-interpolation-filters="sRGB">
<feFlood flood-opacity="0" result="BackgroundImageFix"/>
<feBlend mode="normal" in="SourceGraphic" in2="BackgroundImageFix" result="shape"/>
<feGaussianBlur stdDeviation="0.1" result="effect1_foregroundBlur_6_170"/>
</filter>
<filter id="filter6_f_6_170" x="0.734152" y="590" width="36.5317" height="35.1353" filterUnits="userSpaceOnUse" color-interpolation-filters="sRGB">
<feFlood flood-opacity="0" result="BackgroundImageFix"/>
<feBlend mode="normal" in="SourceGraphic" in2="BackgroundImageFix" result="shape"/>
<feGaussianBlur stdDeviation="2" result="effect1_foregroundBlur_6_170"/>
</filter>
<filter id="filter7_f_6_170" x="9.86708" y="600" width="18.2658" height="17.5676" filterUnits="userSpaceOnUse" color-interpolation-filters="sRGB">
<feFlood flood-opacity="0" result="BackgroundImageFix"/>
<feBlend mode="normal" in="SourceGraphic" in2="BackgroundImageFix" result="shape"/>
<feGaussianBlur stdDeviation="1" result="effect1_foregroundBlur_6_170"/>
</filter>
<filter id="filter8_f_6_170" x="15.2835" y="605.4" width="7.53292" height="7.18381" filterUnits="userSpaceOnUse" color-interpolation-filters="sRGB">
<feFlood flood-opacity="0" result="BackgroundImageFix"/>
<feBlend mode="normal" in="SourceGraphic" in2="BackgroundImageFix" result="shape"/>
<feGaussianBlur stdDeviation="0.1" result="effect1_foregroundBlur_6_170"/>
</filter>
<filter id="filter9_f_6_170" x="0.734152" y="387" width="36.5317" height="35.1353" filterUnits="userSpaceOnUse" color-interpolation-filters="sRGB">
<feFlood flood-opacity="0" result="BackgroundImageFix"/>
<feBlend mode="normal" in="SourceGraphic" in2="BackgroundImageFix" result="shape"/>
<feGaussianBlur stdDeviation="2" result="effect1_foregroundBlur_6_170"/>
</filter>
<filter id="filter10_f_6_170" x="9.86708" y="397" width="18.2658" height="17.5676" filterUnits="userSpaceOnUse" color-interpolation-filters="sRGB">
<feFlood flood-opacity="0" result="BackgroundImageFix"/>
<feBlend mode="normal" in="SourceGraphic" in2="BackgroundImageFix" result="shape"/>
<feGaussianBlur stdDeviation="1" result="effect1_foregroundBlur_6_170"/>
</filter>
<filter id="filter11_f_6_170" x="15.2835" y="402.4" width="7.53292" height="7.18381" filterUnits="userSpaceOnUse" color-interpolation-filters="sRGB">
<feFlood flood-opacity="0" result="BackgroundImageFix"/>
<feBlend mode="normal" in="SourceGraphic" in2="BackgroundImageFix" result="shape"/>
<feGaussianBlur stdDeviation="0.1" result="effect1_foregroundBlur_6_170"/>
</filter>
<filter id="filter12_f_6_170" x="0.734152" y="184" width="36.5317" height="35.1353" filterUnits="userSpaceOnUse" color-interpolation-filters="sRGB">
<feFlood flood-opacity="0" result="BackgroundImageFix"/>
<feBlend mode="normal" in="SourceGraphic" in2="BackgroundImageFix" result="shape"/>
<feGaussianBlur stdDeviation="2" result="effect1_foregroundBlur_6_170"/>
</filter>
<filter id="filter13_f_6_170" x="9.86708" y="194" width="18.2658" height="17.5676" filterUnits="userSpaceOnUse" color-interpolation-filters="sRGB">
<feFlood flood-opacity="0" result="BackgroundImageFix"/>
<feBlend mode="normal" in="SourceGraphic" in2="BackgroundImageFix" result="shape"/>
<feGaussianBlur stdDeviation="1" result="effect1_foregroundBlur_6_170"/>
</filter>
<filter id="filter14_f_6_170" x="15.2835" y="199.4" width="7.53292" height="7.18381" filterUnits="userSpaceOnUse" color-interpolation-filters="sRGB">
<feFlood flood-opacity="0" result="BackgroundImageFix"/>
<feBlend mode="normal" in="SourceGraphic" in2="BackgroundImageFix" result="shape"/>
<feGaussianBlur stdDeviation="0.1" result="effect1_foregroundBlur_6_170"/>
</filter>
</defs>
</svg>
